<svg version="1.0" xmlns="http://www.w3.org/2000/svg"
 width="1280.000000pt" height="129.000000pt" viewBox="0 0 1280.000000 129.000000"
 preserveAspectRatio="">

<g transform="translate(0.000000,129.000000) scale(0.100000,-0.100000)"
fill="#1D1D36" stroke="#1D1D36">
<path d="M2615 1284 c-33 -2 -145 -8 -250 -14 -807 -45 -1633 -187 -2272 -391
l-93 -30 0 -424 0 -425 6400 0 6400 0 0 420 c0 231 -3 420 -6 420 -4 0 -63
-18 -133 -41 -394 -126 -972 -247 -1506 -313 -510 -64 -802 -81 -1410 -81
-644 0 -1001 21 -1585 96 -591 75 -1050 165 -1775 349 -953 241 -1682 360
-2590 421 -154 10 -1057 20 -1180 13z"/>
</g>
</svg>